<svg xmlns="http://www.w3.org/2000/svg" width="216.78" height="35" viewBox="0 0 216.78 35"><rect class="svg__rect" x="0" y="0" width="85.62" height="35" fill="#31C4F3"/><rect class="svg__rect" x="83.62" y="0" width="133.16" height="35" fill="#389AD5"/><path class="svg__text" d="M15.78 22L14.31 22L14.31 13.47L15.78 13.47L15.78 22ZM22.07 22L20.59 22L20.59 13.47L22.51 13.47L24.98 20.01L27.43 13.47L29.35 13.47L29.35 22L27.87 22L27.87 19.19L28.02 15.43L25.50 22L24.44 22L21.92 15.43L22.07 19.19L22.07 22ZM34.87 22L33.32 22L36.55 13.47L37.88 13.47L41.11 22L39.56 22L38.86 20.01L35.56 20.01L34.87 22ZM37.21 15.28L35.97 18.82L38.45 18.82L37.21 15.28ZM44.81 18.13L44.81 18.13L44.81 17.46Q44.81 15.53 45.74 14.44Q46.67 13.35 48.32 13.35L48.32 13.35Q49.75 13.35 50.59 14.05Q51.42 14.76 51.59 16.08L51.59 16.08L50.14 16.08Q49.89 14.54 48.35 14.54L48.35 14.54Q47.36 14.54 46.84 15.26Q46.32 15.98 46.30 17.37L46.30 17.37L46.30 18.02Q46.30 19.40 46.89 20.17Q47.47 20.93 48.51 20.93L48.51 20.93Q49.64 20.93 50.12 20.42L50.12 20.42L50.12 18.75L48.37 18.75L48.37 17.62L51.60 17.62L51.60 20.89Q51.14 21.50 50.32 21.81Q49.50 22.12 48.45 22.12L48.45 22.12Q47.38 22.12 46.56 21.63Q45.73 21.14 45.28 20.24Q44.83 19.33 44.81 18.13ZM61.80 22L56.22 22L56.22 13.47L61.75 13.47L61.75 14.66L57.70 14.66L57.70 17.02L61.20 17.02L61.20 18.19L57.70 18.19L57.70 20.82L61.80 20.82L61.80 22ZM65.56 19.42L65.56 19.42L67.04 19.42Q67.04 20.15 67.52 20.55Q68.00 20.95 68.90 20.95L68.90 20.95Q69.67 20.95 70.06 20.63Q70.45 20.32 70.45 19.80L70.45 19.80Q70.45 19.24 70.05 18.94Q69.66 18.63 68.63 18.32Q67.60 18.01 66.99 17.63L66.99 17.63Q65.82 16.90 65.82 15.72L65.82 15.72Q65.82 14.69 66.66 14.02Q67.50 13.35 68.84 13.35L68.84 13.35Q69.73 13.35 70.43 13.68Q71.13 14.01 71.53 14.61Q71.93 15.22 71.93 15.96L71.93 15.96L70.45 15.96Q70.45 15.29 70.03 14.91Q69.61 14.54 68.83 14.54L68.83 14.54Q68.11 14.54 67.70 14.85Q67.30 15.16 67.30 15.71L67.30 15.71Q67.30 16.18 67.74 16.50Q68.17 16.81 69.17 17.10Q70.16 17.40 70.77 17.78Q71.37 18.16 71.65 18.65Q71.93 19.13 71.93 19.79L71.93 19.79Q71.93 20.86 71.11 21.49Q70.30 22.12 68.90 22.12L68.90 22.12Q67.97 22.12 67.19 21.77Q66.42 21.43 65.99 20.83Q65.56 20.22 65.56 19.42Z" fill="#FFFFFF"/><path class="svg__text" d="M97.38 17.80L97.38 17.80Q97.38 16.54 97.98 15.54Q98.58 14.55 99.64 13.99Q100.71 13.43 102.06 13.43L102.06 13.43Q103.23 13.43 104.17 13.83Q105.11 14.22 105.73 14.97L105.73 14.97L104.22 16.33Q103.37 15.40 102.20 15.40L102.20 15.40Q102.18 15.40 102.18 15.40L102.18 15.40Q101.10 15.40 100.44 16.06Q99.78 16.71 99.78 17.80L99.78 17.80Q99.78 18.50 100.08 19.04Q100.38 19.59 100.92 19.89Q101.46 20.20 102.16 20.20L102.16 20.20Q102.84 20.20 103.44 19.93L103.44 19.93L103.44 17.62L105.54 17.62L105.54 21.10Q104.82 21.61 103.88 21.89Q102.95 22.17 102.01 22.17L102.01 22.17Q100.69 22.17 99.63 21.61Q98.58 21.05 97.98 20.05Q97.38 19.06 97.38 17.80ZM117.27 22L110.53 22L110.53 13.60L117.12 13.60L117.12 15.44L112.88 15.44L112.88 16.85L116.62 16.85L116.62 18.63L112.88 18.63L112.88 20.17L117.27 20.17L117.27 22ZM124.41 22L122.08 22L122.08 13.60L124.03 13.60L127.74 18.07L127.74 13.60L130.07 13.60L130.07 22L128.12 22L124.41 17.52L124.41 22ZM141.98 22L135.23 22L135.23 13.60L141.82 13.60L141.82 15.44L137.59 15.44L137.59 16.85L141.32 16.85L141.32 18.63L137.59 18.63L137.59 20.17L141.98 20.17L141.98 22ZM149.16 22L146.78 22L146.78 13.60L150.62 13.60Q151.77 13.60 152.60 13.98Q153.44 14.35 153.90 15.06Q154.36 15.76 154.36 16.71L154.36 16.71Q154.36 17.62 153.93 18.30Q153.50 18.98 152.71 19.36L152.71 19.36L154.52 22L151.98 22L150.45 19.77L149.16 19.77L149.16 22ZM149.16 15.47L149.16 17.93L150.48 17.93Q151.21 17.93 151.58 17.61Q151.95 17.29 151.95 16.71L151.95 16.71Q151.95 16.12 151.58 15.79Q151.21 15.47 150.48 15.47L150.48 15.47L149.16 15.47ZM160.56 22L158.14 22L161.84 13.60L164.19 13.60L167.90 22L165.44 22L164.77 20.37L161.22 20.37L160.56 22ZM163.00 15.93L161.92 18.61L164.08 18.61L163.00 15.93ZM173.85 15.48L171.27 15.48L171.27 13.60L178.79 13.60L178.79 15.48L176.22 15.48L176.22 22L173.85 22L173.85 15.48ZM182.73 17.80L182.73 17.80Q182.73 16.55 183.34 15.55Q183.94 14.56 185.00 14.00Q186.07 13.43 187.40 13.43L187.40 13.43Q188.73 13.43 189.79 14.00Q190.85 14.56 191.46 15.55Q192.07 16.55 192.07 17.80L192.07 17.80Q192.07 19.05 191.46 20.04Q190.85 21.04 189.79 21.60Q188.73 22.17 187.40 22.17L187.40 22.17Q186.07 22.17 185.00 21.60Q183.94 21.04 183.34 20.04Q182.73 19.05 182.73 17.80ZM185.13 17.80L185.13 17.80Q185.13 18.51 185.43 19.05Q185.73 19.60 186.25 19.90Q186.76 20.20 187.40 20.20L187.40 20.20Q188.04 20.20 188.55 19.90Q189.07 19.60 189.37 19.05Q189.67 18.51 189.67 17.80L189.67 17.80Q189.67 17.09 189.37 16.54Q189.07 16 188.55 15.70Q188.04 15.40 187.40 15.40L187.40 15.40Q186.76 15.40 186.25 15.70Q185.73 16 185.43 16.54Q185.13 17.09 185.13 17.80ZM199.18 22L196.80 22L196.80 13.60L200.64 13.60Q201.78 13.60 202.62 13.98Q203.46 14.35 203.92 15.06Q204.37 15.76 204.37 16.71L204.37 16.71Q204.37 17.62 203.94 18.30Q203.52 18.98 202.73 19.36L202.73 19.36L204.54 22L201.99 22L200.47 19.77L199.18 19.77L199.18 22ZM199.18 15.47L199.18 17.93L200.49 17.93Q201.23 17.93 201.60 17.61Q201.97 17.29 201.97 16.71L201.97 16.71Q201.97 16.12 201.60 15.79Q201.23 15.47 200.49 15.47L200.49 15.47L199.18 15.47Z" fill="#FFFFFF" x="96.62"/></svg>